<svg width="20" height="20" viewBox="0 0 20 20" fill="none" xmlns="http://www.w3.org/2000/svg">
<path d="M19.3851 15.7505C19.6188 15.985 19.794 16.2712 19.8964 16.5859C19.9989 16.9007 20.0258 17.2351 19.975 17.5622C19.9242 17.8893 19.797 18.1998 19.6039 18.4686C19.4107 18.7374 19.157 18.9569 18.8632 19.1094C17.1843 20.0068 15.2282 20.2361 13.3873 19.7514C8.50139 18.5215 1.47855 11.4986 0.248575 6.61272C-0.23609 4.77181 -0.00676116 2.81572 0.89056 1.13684C1.04305 0.843048 1.26259 0.589298 1.5314 0.396137C1.8002 0.202975 2.11072 0.075832 2.4378 0.0250021C2.76488 -0.0258278 3.09934 0.00108451 3.41409 0.10356C3.72883 0.206035 4.01503 0.381193 4.24949 0.614851L6.33444 2.6988C6.63511 2.99645 6.83856 3.3782 6.918 3.79376C6.99743 4.20932 6.94912 4.63919 6.77943 5.02675C6.59374 5.46158 6.33007 5.85878 6.00145 6.19873C3.6175 8.58267 11.4183 16.3835 13.8013 13.9986C14.1413 13.6688 14.5388 13.4041 14.9742 13.2176C15.3618 13.0476 15.7917 12.9991 16.2073 13.0786C16.6229 13.158 17.0047 13.3616 17.3022 13.6626L19.3851 15.7505Z" fill="#10264B"/>
</svg>
