<svg width="15" height="15" viewBox="0 0 15 15" fill="none" xmlns="http://www.w3.org/2000/svg">
<path d="M0 15L1.05941 11.1481C0.405677 10.0206 0.0621703 8.7425 0.0627983 7.43187C0.0646822 3.33437 3.41497 0 7.5314 0C9.52901 0.000625 11.4042 0.775 12.8146 2.18C14.2244 3.585 15.0006 5.4525 15 7.43875C14.9981 11.5369 11.6478 14.8713 7.5314 14.8713C6.28171 14.8706 5.05024 14.5588 3.95943 13.9663L0 15ZM4.1428 12.6206C5.1953 13.2425 6.20007 13.615 7.52889 13.6156C10.9501 13.6156 13.7371 10.8444 13.739 7.4375C13.7403 4.02375 10.9665 1.25625 7.53391 1.255C4.11015 1.255 1.32504 4.02625 1.32379 7.4325C1.32316 8.82313 1.7326 9.86437 2.42025 10.9537L1.79289 13.2337L4.1428 12.6206ZM11.2936 9.20563C11.2472 9.12813 11.1228 9.08187 10.9357 8.98875C10.7492 8.89562 9.8317 8.44625 9.66026 8.38437C9.48945 8.3225 9.36511 8.29125 9.24014 8.4775C9.1158 8.66313 8.75785 9.08188 8.64921 9.20563C8.54057 9.32938 8.4313 9.345 8.24479 9.25188C8.05828 9.15875 7.45667 8.96313 6.74391 8.33C6.1894 7.8375 5.81449 7.22938 5.70585 7.04313C5.59721 6.8575 5.69455 6.75688 5.78749 6.66438C5.87164 6.58125 5.974 6.4475 6.06757 6.33875C6.1624 6.23125 6.19317 6.15375 6.25597 6.02938C6.31814 5.90563 6.28736 5.79688 6.24027 5.70375C6.19317 5.61125 5.82015 4.69688 5.66503 4.325C5.51306 3.96313 5.35921 4.01187 5.24491 4.00625L4.88696 4C4.76262 4 4.56041 4.04625 4.3896 4.2325C4.21879 4.41875 3.7365 4.8675 3.7365 5.78188C3.7365 6.69625 4.4053 7.57937 4.49824 7.70312C4.59181 7.82687 5.81386 9.70313 7.68588 10.5075C8.13112 10.6988 8.47902 10.8131 8.74968 10.8987C9.19681 11.04 9.60374 11.02 9.92527 10.9725C10.2838 10.9194 11.0293 10.5231 11.185 10.0894C11.3407 9.655 11.3407 9.28313 11.2936 9.20563Z" fill="#3FBE52"/>
</svg>
